<svg viewBox="0 0 32 32" xmlns="http://www.w3.org/2000/svg" width="300" height="300" version="1.1" xmlns:xlink="http://www.w3.org/1999/xlink" xmlns:svgjs="http://svgjs.dev/svgjs"><g width="100%" height="100%" transform="matrix(1.07,0,0,1.07,-1.120000000000001,-1.1256710910797132)"><g id="Layer"><path d="m8 30.16a3 3 0 0 1 -3-3v-22.16a3 3 0 0 1 3-3h16a3 3 0 0 1 3 3v22.16a3 3 0 0 1 -4.72 2.46l-5.71-4a1 1 0 0 0 -1.14 0l-5.71 4a3 3 0 0 1 -1.72.54zm0-26.16a1 1 0 0 0 -1 1v22.16a1 1 0 0 0 1.57.84l5.71-4a3 3 0 0 1 3.44 0l5.71 4a1 1 0 0 0 1.57-.84v-22.16a1 1 0 0 0 -1-1z" fill="#000000" fill-opacity="1" data-original-color="#000000ff" stroke="none" stroke-opacity="1"/></g></g></svg>