<svg version="1.1" id="Capa_1" xmlns="http://www.w3.org/2000/svg" xmlns:xlink="http://www.w3.org/1999/xlink" x="0px" y="0px" viewBox="0 0 512 512" style="enable-background:new 0 0 512 512;" xml:space="preserve" width="300" height="300" xmlns:svgjs="http://svgjs.dev/svgjs"><g width="100%" height="100%" transform="matrix(1,0,0,1,0,0)"><path style="" d="M465.5,32.674c-126.432-91.658-252.863,91.658-379.295,0c0,35.527-28.733,86.727-28.733,122.253&#10;&#9;c0,54.335,28.733,92.996,28.733,147.331c126.432,91.658,252.863-91.658,379.295,0C465.5,212.396,465.5,122.535,465.5,32.674z" fill="#000000" fill-opacity="1" data-original-color="#5a5c60ff" stroke="none" stroke-opacity="1"/><path style="" d="M86.206,19.853v472.294c0,5.486-2.226,10.439-5.82,14.033c-2.027,2.027-4.493,3.626-7.241,4.629&#10;&#9;c-2.121,0.773-4.409,1.191-6.792,1.191c-10.971,0-19.853-8.892-19.853-19.853V19.853C46.5,8.892,55.382,0,66.353,0&#10;&#9;c2.382,0,4.671,0.418,6.792,1.191C80.762,3.971,86.206,11.274,86.206,19.853z" fill="#000000" fill-opacity="1" data-original-color="#e2a91bff" stroke="none" stroke-opacity="1"/><path style="" d="M86.206,19.853v472.294c0,5.486-2.226,10.439-5.82,14.033c-2.027,2.027-4.493,3.626-7.241,4.629&#10;&#9;c-7.617-2.769-13.061-10.083-13.061-18.662V19.853c0-8.579,5.444-15.893,13.061-18.662C80.762,3.971,86.206,11.274,86.206,19.853z" fill="#000000" fill-opacity="1" data-original-color="#fcc938ff" stroke="none" stroke-opacity="1"/><g>
	<path style="" d="M275.854,167.466v134.792c-63.216,22.915-126.433,45.829-189.649,0V167.466&#10;&#9;&#9;C149.421,213.295,212.638,190.38,275.854,167.466z" fill="#000000" fill-opacity="1" data-original-color="#f2f2f2ff" stroke="none" stroke-opacity="1"/>
	<path style="" d="M465.493,32.674v134.792c-63.206-45.829-126.422-22.915-189.639,0V32.674&#10;&#9;&#9;C339.07,9.759,402.287-13.155,465.493,32.674z" fill="#000000" fill-opacity="1" data-original-color="#f2f2f2ff" stroke="none" stroke-opacity="1"/>
</g><g>
</g><g>
</g><g>
</g><g>
</g><g>
</g><g>
</g><g>
</g><g>
</g><g>
</g><g>
</g><g>
</g><g>
</g><g>
</g><g>
</g><g>
</g></g></svg>