<svg id="Icon" enable-background="new 0 0 100 100" height="300" viewBox="0 0 100 100" width="300" xmlns="http://www.w3.org/2000/svg" version="1.1" xmlns:xlink="http://www.w3.org/1999/xlink" xmlns:svgjs="http://svgjs.dev/svgjs"><g width="100%" height="100%" transform="matrix(1.5,0,0,1.5,-25,-35)"><g><path d="m100 82c0 3.313-2.687 6-6 6h-88c-3.313 0-6-2.687-6-6v-64c0-3.313 2.687-6 6-6h88c3.313 0 6 2.687 6 6z" fill="#4cabeb" fill-opacity="0" data-original-color="#4cabebff" stroke="none" stroke-opacity="1"/><path d="m92 74.8c0 2.783-2.257 5.04-5.04 5.04h-73.92c-2.783 0-5.04-2.257-5.04-5.04v-53.76c0-2.783 2.257-5.04 5.04-5.04h73.92c2.783 0 5.04 2.257 5.04 5.04z" fill="#ffffff" fill-opacity="0" data-original-color="#ffffffff" stroke="none" stroke-opacity="1"/><path d="m92 36v-14.96c0-1.661-.814-3.122-2.054-4.04h-79.892c-1.24.918-2.054 2.379-2.054 4.04v14.96z" fill="#ededed" fill-opacity="0" data-original-color="#edededff" stroke="none" stroke-opacity="1"/><g fill="#fc913f"><path d="m66 72.421c-.766 0-1.529-.291-2.115-.873-1.175-1.168-1.18-3.067-.012-4.242l10.459-10.52-10.459-10.52c-1.168-1.175-1.163-3.074.012-4.242s3.074-1.164 4.242.012l11.168 11.231c1.637 1.646 1.924 4.158.71 6.132-.019.031-.038.063-.058.094-.193.302-.419.58-.67.828l-11.15 11.215c-.586.59-1.356.885-2.127.885z" fill="#000000" fill-opacity="1" data-original-color="#fc913fff" stroke="none" stroke-opacity="1"/><path d="m35 72.421c-.771 0-1.541-.295-2.127-.885l-11.167-11.231c-.234-.231-.459-.51-.653-.812-.02-.031-.04-.063-.058-.094-1.214-1.975-.927-4.485.71-6.132l11.167-11.231c1.169-1.176 3.068-1.18 4.243-.012s1.18 3.067.012 4.242l-10.459 10.52 10.459 10.52c1.168 1.175 1.163 3.074-.012 4.242-.585.582-1.35.873-2.115.873z" fill="#000000" fill-opacity="1" data-original-color="#fc913fff" stroke="none" stroke-opacity="1"/><path d="m46.002 74.45c-.26 0-.524-.034-.787-.105-1.599-.434-2.544-2.081-2.111-3.681l8.403-31.007c.435-1.6 2.084-2.543 3.681-2.11 1.599.434 2.544 2.081 2.11 3.681l-8.403 31.007c-.362 1.335-1.572 2.215-2.893 2.215z" fill="#000000" fill-opacity="1" data-original-color="#fc913fff" stroke="none" stroke-opacity="1"/></g><path d="m0 18v13h100v-13c0-3.313-2.687-6-6-6h-88c-3.313 0-6 2.687-6 6z" fill="#4cabeb" fill-opacity="0" data-original-color="#4cabebff" stroke="none" stroke-opacity="1"/><circle cx="72.5" cy="21.5" fill="#ffffff" r="3.5" fill-opacity="0" data-original-color="#ffffffff" stroke="none" stroke-opacity="1"/><circle cx="82.5" cy="21.5" fill="#9cdcff" r="3.5" fill-opacity="0" data-original-color="#9cdcffff" stroke="none" stroke-opacity="1"/><circle cx="92.5" cy="21.5" fill="#77c3f5" r="3.5" fill-opacity="0" data-original-color="#77c3f5ff" stroke="none" stroke-opacity="1"/><g fill="#9cdcff"><path d="m8 21.5c0 1.934 1.567 3.5 3.5 3.5h33.5c1.933 0 3.5-1.566 3.5-3.5 0-1.934-1.567-3.5-3.5-3.5h-33.5c-1.933 0-3.5 1.566-3.5 3.5z" fill="#9cdcff" fill-opacity="0" data-original-color="#9cdcffff" stroke="none" stroke-opacity="1"/><path d="m25.5 21.5c0 1.934 1.567 3.5 3.5 3.5h33.5c1.933 0 3.5-1.566 3.5-3.5 0-1.934-1.567-3.5-3.5-3.5h-33.5c-1.933 0-3.5 1.566-3.5 3.5z" fill="#9cdcff" fill-opacity="0" data-original-color="#9cdcffff" stroke="none" stroke-opacity="1"/></g></g></g></svg>