<svg version="1.1" id="Layer_1" xmlns="http://www.w3.org/2000/svg"
                                xmlns:xlink="http://www.w3.org/1999/xlink" x="0px" y="0px" viewBox="0 0 512 512"
                                style="enable-background:new 0 0 512 512;" xml:space="preserve" width="300" height="300"
                                xmlns:svgjs="http://svgjs.dev/svgjs">
                                <g width="100%" height="100%" transform="matrix(1,0,0,1,0,0)">
                                    <path style=""
                                        d="M55.552,508C27.12,508,4,484.872,4,456.448V55.552C4,27.128,27.128,4,55.552,4H456.44&#10;&#9;c28.432,0,51.552,23.128,51.552,51.552V456.44c0,28.432-23.128,51.552-51.552,51.552H55.552V508z"
                                        fill="#ffffff" fill-opacity="0" data-original-color="#ffffffff" stroke="none"
                                        stroke-opacity="1" />
                                    <path style=""
                                        d="M456.448,8C482.664,8,504,29.336,504,55.552V456.44c0,26.224-21.336,47.56-47.552,47.56H55.552&#10;&#9;C29.336,504,8,482.664,8,456.448V55.552C8,29.336,29.336,8,55.552,8H456.448 M456.448,0H55.552C24.872,0,0,24.872,0,55.552V456.44&#10;&#9;C0,487.128,24.872,512,55.552,512H456.44c30.688,0,55.56-24.872,55.56-55.552V55.552C512,24.872,487.128,0,456.448,0L456.448,0z"
                                        fill="#cccccc" fill-opacity="0" data-original-color="#ccccccff" stroke="none"
                                        stroke-opacity="1" />
                                    <g>
                                        <circle style="" cx="394.72" cy="256" r="45.256" fill="#333333" fill-opacity="1"
                                            data-original-color="#333333ff" stroke="none" stroke-opacity="1" />
                                        <circle style="" cx="256" cy="256" r="45.256" fill="#333333" fill-opacity="1"
                                            data-original-color="#333333ff" stroke="none" stroke-opacity="1" />
                                        <circle style="" cx="117.256" cy="256" r="45.256" fill="#333333"
                                            fill-opacity="1" data-original-color="#333333ff" stroke="none"
                                            stroke-opacity="1" />
                                    </g>
                                </g>
                            </svg>